<svg width="196" height="195" viewBox="0 0 196 195" fill="none" xmlns="http://www.w3.org/2000/svg">
<path d="M162.909 31.8789C146.267 15.2369 123.061 4.92353 97.5122 4.92353C71.9618 4.92353 48.9913 15.2369 32.1132 31.8789C15.4712 48.7571 5.15775 71.7296 5.15775 97.28C5.15775 122.83 15.4712 146.037 32.1132 162.913C48.9913 179.555 71.9618 189.871 97.5122 189.871C123.061 189.871 146.267 179.555 162.909 162.913C179.785 146.037 190.101 122.83 190.101 97.28C190.101 71.7296 179.785 48.7571 162.909 31.8789ZM97.5122 -1.96602e-05C124.468 -1.96602e-05 148.845 10.7837 166.426 28.3644C184.241 46.1792 195.022 70.5568 195.022 97.28C195.022 124.235 184.241 148.615 166.426 166.43C148.845 184.01 124.468 194.792 97.5122 194.792C70.789 194.792 46.4115 184.01 28.5986 166.43C11.018 148.615 0 124.235 0 97.28C0 70.5568 11.018 46.1792 28.5986 28.3644C46.4115 10.7837 70.789 -1.96602e-05 97.5122 -1.96602e-05Z" fill="#4064F2"/>
<path d="M113.844 139.961C104.233 139.961 94.6223 136.447 86.8887 129.414L60.1655 151.213C59.2289 152.152 57.5877 151.916 56.651 150.745C45.3989 136.916 39.7728 120.037 40.007 103.63C40.007 87.4559 46.1014 71.7506 57.8218 59.796C68.8398 48.778 83.6064 43.3862 98.373 43.6203C113.142 43.6203 127.674 49.4805 139.158 60.7326C148.769 70.5777 154.161 83.0007 154.63 95.1914C155.098 107.614 151.113 119.569 141.972 128.71C134.237 136.447 124.158 140.195 113.844 139.961V139.961ZM110.093 102.925C109.625 103.395 109.157 103.63 108.686 103.864C108.923 103.864 108.923 103.864 109.157 103.864C109.859 103.864 110.562 103.63 111.266 103.161C112.203 101.988 112.905 100.581 112.905 99.1763C112.905 97.7693 112.437 96.3623 111.266 95.1914C109.625 93.7844 107.516 92.8457 105.172 92.6116C103.297 92.6116 101.421 93.0819 100.014 94.7211C98.1388 96.5964 96.968 99.4105 96.968 102.223C97.2021 104.8 98.1388 107.614 100.483 109.724C103.297 112.536 107.047 114.177 110.562 114.177C114.078 114.411 117.595 113.24 120.173 110.426C123.689 107.146 125.33 102.691 125.096 98.0035C124.86 93.3161 122.985 88.6267 119.236 84.876C114.781 80.4228 108.923 78.0791 103.062 77.845C97.2021 77.845 91.5761 79.9545 87.1229 84.1735C81.9652 89.5654 79.3874 96.5965 79.6216 103.864C79.8557 111.131 83.1381 118.63 88.7622 124.491C95.7952 131.524 104.938 135.04 113.844 135.04C122.751 135.274 131.659 131.992 138.456 125.195C146.426 117.225 150.176 106.442 149.708 95.4256C149.238 84.4077 144.316 73.1556 135.644 64.2492C125.096 53.9357 111.735 48.5439 98.373 48.5439C84.7792 48.3097 71.4176 53.4654 61.3383 63.3105C50.5565 74.3284 44.9306 88.8609 44.9306 103.63C44.6964 118.162 49.3838 133.165 58.9947 145.822L83.6064 125.898C77.9804 119.569 74.9341 111.833 74.6999 104.098C74.4638 95.4256 77.2779 86.9855 83.6064 80.657C88.9983 75.2651 96.0293 72.9214 103.297 72.9214C110.328 73.1556 117.361 75.9696 122.751 81.3615C127.44 86.0489 129.784 91.9091 130.018 97.7693C130.252 103.864 128.142 109.724 123.689 113.943C120.173 117.694 115.251 119.335 110.562 119.335C105.64 119.101 100.717 116.991 96.968 113.24C93.6856 110.192 92.2787 106.207 92.0445 102.223C92.0445 98.2376 93.4515 94.0186 96.4977 91.2066C99.0776 88.6267 102.358 87.4559 105.406 87.69C108.923 87.9242 112.203 89.3312 114.781 91.9091C116.89 94.0186 117.829 96.5965 117.829 99.1763C117.829 101.988 116.656 104.8 114.781 106.676C112.906 108.317 110.796 109.019 108.686 108.785C106.577 108.785 104.467 107.614 102.826 106.207C102.826 106.207 102.826 105.973 102.592 105.973C101.187 104.566 100.717 102.925 100.717 101.286C100.717 99.1763 101.89 97.5351 102.826 96.3623C104.467 94.9553 106.109 94.7211 107.75 95.1914C108.923 95.4256 109.859 96.3623 110.562 97.0648C113.376 99.6446 111.266 101.988 110.328 102.925H110.093" fill="#4064F2"/>
</svg>
